-
http:// www. Speed. Cd       
http:// www. Speed. Cd       the fast  and The Hottest Private Tracker on the net

Please Seed back to make the speed Faster!!!

and don't forget to visit      ...... www. Speed. Cd..........
-[img]http://img844.imageshack.us/img844/7458/fptnbr.jpg[/img]

[color=blue][size=5][b]From.Prada.to.Nada.2011.BDRip.XVID.AC3.HQ.Hive-CM8[/b][/size][/color]


[b]Thx Hive

CM8 Doing It Right The First Time :D


Why download a touched up rip of a rip BRrip
Get the real deal BDRip

You should wait
For Hive-CM8

Enjoy


Source Bluray

Video: 720x400 @bitrate 1800 2pass
Audio: DTS to AC3 5.1 @448
Sample: yes included
Subs: yes english hardcoded for foreign parts only
full english subs in srt /subs[/b]


[url]http://www.imdb.com/title/tt0893412/[/url]


General
Complete name                    : From.Prada.to.Nada.2011.BDRip.XVID.AC3.HQ.Hive-CM8.avi
Format                           : AVI
Format/Info                      : Audio Video Interleave
File size                        : 1.68 GiB
Duration                         : 1h 46mn
Overall bit rate                 : 2 257 Kbps
Writing application              : Nandub v1.0rc2
Writing library                  : Nandub build 1853/release

Video
ID                               : 0
Format                           : MPEG-4 Visual
Format profile                   : Advanced Simple@L5
Format settings, BVOP            : Yes
Format settings, QPel            : Yes
Format settings, GMC             : No warppoints
Format settings, Matrix          : Default (H.263)
Muxing mode                      : Packed bitstream
Codec ID                         : XVID
Codec ID/Hint                    : XviD
Duration                         : 1h 46mn
Bit rate                         : 1 800 Kbps
Width                            : 720 pixels
Height                           : 400 pixels
Display aspect ratio             : 16:9
Frame rate                       : 23.976 fps
Color space                      : YUV
Chroma subsampling               : 4:2:0
Bit depth                        : 8 bits
Scan type                        : Progressive
Bits/(Pixel*Frame)               : 0.261
Stream size                      : 1.34 GiB (80%)
Writing library                  : XviD 1.2.1 (UTC 2008-12-04)

Audio
ID                               : 1
Format                           : AC-3
Format/Info                      : Audio Coding 3
Mode extension                   : CM (complete main)
Codec ID                         : 2000
Duration                         : 1h 46mn
Bit rate mode                    : Constant
Bit rate                         : 448 Kbps
Channel(s)                       : 6 channels
Channel positions                : Front: L C R, Side: L R, LFE
Sampling rate                    : 48.0 KHz
Bit depth                        : 16 bits
Stream size                      : 341 MiB (20%)
Alignment                        : Split accross interleaves
Interleave, duration             : 42 ms (1.00 video frame)
Interleave, preload duration     : 500 ms



Camilla Belle	 ... 	Nora Dominguez
Alexa Vega	... 	Mary Dominguez
Tina French	... 	Old Librarian
Luis Rosales	... 	Juanito
Pablo Martinez de Velasco ... Pablo the Gardener


A Latina spin on Jane Austen's "Sense and Sensibility," where two spoiled 
sisters who have been left penniless after their father's sudden death are 
forced to move in with their estranged aunt in East Los Angeles. 


[img]http://img815.imageshack.us/img815/5643/39369193.png[/img]
[img]http://img808.imageshack.us/img808/5626/prpr.png[/img]
[img]http://img641.imageshack.us/img641/596/pprrprpr.png[/img]
[img]http://img695.imageshack.us/img695/3492/prprpr.png[/img]
[img]http://img202.imageshack.us/img202/1994/pprpprrrprpr.png[/img]
[img]http://img715.imageshack.us/img715/4473/pprprrprpr.png[/img]





Greetz

ViSiON,LUSi,SANTi,MAGNET,THC,T0XiCiNK,LKRG,IMAGiNE,WBZ,FLAWL3SS,NOVA
Vik,Rapeseed,D2U,SAFC,goldadvance,MEMORY100,KaN1vE,Unevano,Pinnz,Wayne,Mr Hive
and all P2P groups 
Great Work Guys :D

CM8@hushmail.com